<?xml version="1.0" encoding="utf-8"?>
<!-- Svg Vector Icons : http://www.onlinewebfonts.com/icon -->
<!DOCTYPE svg PUBLIC "-//W3C//DTD SVG 1.1//EN" "http://www.w3.org/Graphics/SVG/1.1/DTD/svg11.dtd">
<svg version="1.1" xmlns="http://www.w3.org/2000/svg" xmlns:xlink="http://www.w3.org/1999/xlink" x="0px" y="0px" fill="#fff" viewBox="0 0 1000 1000" enable-background="new 0 0 1000 1000" xml:space="preserve">
<metadata> Svg Vector Icons : http://www.onlinewebfonts.com/icon </metadata>
<g><g><g><path d="M986.7,794.2c-33.4-67.8-76.9-60.3-72.6,20c7.2,27.3-38.8,47.5-57.1,57.8c-34.2,19.3-50.8,6-86.6-6.1c-52.7-18-113,7.7-166,10.8c-40.3,2.4-61.3-42.1-72.5-96c3.8,6.3,7.7,12.7,11.9,18.7c47.5,69.3,146.3,59.7,218.7,42.6c86.1-20.4,109.7-100.7,93.8-180.2c-7.9-39.2-63.4-154.1-14.9-171.9c26-9.6,57.5-8.7,84.8-6.1c47.1-23.2,52.1-40,0-75.3c-46.9-4.5-95.3,1.3-137.3,22.9c-3.3,1.7-6.1,3.6-9,5.5c4-20.9,6.1-42.5,6.1-64.6c0-181.8-140.6-329.8-313.3-329.8c-172.7,0-313.3,148-313.3,329.8c0,146.5,91.2,270.8,216.9,313.7c-8.3,14-17.2,27.8-24.8,37.2c-24,29.6-30,13-60,3.8c-29.2-8.9-55.1-9.5-85.4-5.5c-45,5.9-83.4,3.7-80.3-49.3c1.6-27.3,8.9-54.8,11.8-82.1c5.1-47.3-14.6-83.2-51-111c-71.9-26.5-75.2,1.1-38,65c48.7,37.1-23.5,151,14.7,204.7c20.4,28.7,43.6,45.6,78.5,51.7c48.4,8.5,92.5-21.3,139.1,6c52.2,30.6,96.4,4.2,130.8-37.7c-5.4,48.7-14.6,89.1-30.6,91.2c-86.7,11.5-164.3,15.2-241-31.5c-40-24.3-97.3-7.8-125.3,26.9c-15.6,70.1,9.1,66.8,53.3,53.3c25.4-31.4,70.3,11.4,98,19.6c38.3,11.4,76.3,14.8,116.2,15.1c46.6,0.3,133.7,6,162.7-40.8c11.2-18,19.6-38.1,26.2-59.5c17.5,61.1,54.5,107,133.3,108.8c40,0.9,79.7-11.7,119.1-16.8c47.1-6.1,84.1,34,133.2,18.7C923.8,933.1,1007.7,873.1,986.7,794.2z M505.2,549.1c-12.4,3.7-27,5.2-44,5.2c-60.5,0-136.2-88.9-136.2-88.9s59.3-74.1,115.1-88.5c12.4-3.7,27-5.2,43.9-5.2c60.5,0,136.3,88.9,136.3,88.9S561,534.8,505.2,549.1z M769.1,622.8c14.8,50.8,39.1,124.4-26.6,146.6c-30.6,10.4-104.5,19.9-130.5-4.7c-20.2-19.1-34.7-47.3-45.9-77.4c76.9-25.3,141-81.1,179.8-153.8C750.1,564.8,761.5,597,769.1,622.8z M199.5,372.4C199.5,213,322,83.3,472.6,83.3c150.6,0,273.1,129.7,273.1,289.1c0,94.7-43.4,178.6-110.1,231.4c42-45,68-107.3,68-176.1c0-137.3-103.4-248.6-231-248.6c-127.6,0-231,111.3-231,248.6c0,68.8,26,131.1,68,176.1C242.9,551,199.5,467.1,199.5,372.4z"/><path d="M469.2,407.6c-32.5,0-58.8,26.4-58.8,58.9c0,32.5,26.3,58.9,58.8,58.9c32.5,0,58.8-26.4,58.8-58.9C528.1,433.9,501.7,407.6,469.2,407.6z M468.9,500.9c-18.6,0-33.7-15.1-33.7-33.6c0-18.6,15.1-33.7,33.7-33.7c18.6,0,33.6,15.1,33.6,33.7C502.6,485.8,487.5,500.9,468.9,500.9z"/></g></g><g></g><g></g><g></g><g></g><g></g><g></g><g></g><g></g><g></g><g></g><g></g><g></g><g></g><g></g><g></g></g>
</svg>