<?xml version="1.0" encoding="utf-8"?>
<!-- Svg Vector Icons : http://www.onlinewebfonts.com/icon -->
<!DOCTYPE svg PUBLIC "-//W3C//DTD SVG 1.1//EN" "http://www.w3.org/Graphics/SVG/1.1/DTD/svg11.dtd">
<svg version="1.1" xmlns="http://www.w3.org/2000/svg" xmlns:xlink="http://www.w3.org/1999/xlink" x="0px" y="0px" fill="#fff" viewBox="0 0 1000 1000" enable-background="new 0 0 1000 1000" xml:space="preserve">
<metadata> Svg Vector Icons : http://www.onlinewebfonts.com/icon </metadata>
<g><g transform="translate(0.000000,512.000000) scale(0.100000,-0.100000)"><path d="M4546.5,5013C2908.8,4857.5,1415,3851.4,656.6,2394.1C332.1,1772.1,188.1,1301.7,111.3,602.8C94.1,453,96,416.5,120.9,368.5c34.6-67.2,61.4-74.9,278.4-80.6l163.2-5.8V118.9V-44.2L399.3-50c-217-5.8-243.8-13.4-278.4-80.6c-25-48-26.9-84.5-9.6-234.2c78.7-708.5,220.8-1167.4,558.7-1818.2c232.3-443.5,422.4-710.4,737.3-1036.8c474.2-489.6,973.4-852.5,1520.6-1109.7c1359.4-635.5,2910.7-618.2,4248.9,51.8c524.1,263,929.3,564.5,1393.9,1038.7c403.2,414.7,679.7,829.4,919.7,1380.5c40.3,90.2,86.4,197.8,105.6,240C9724.7-1323,9855.3-750.8,9893.7-313c11.5,136.3,9.6,159.4-25,201.6c-36.5,44.2-53.8,48-247.7,57.6l-207.4,9.6v163.2v163.2l207.4,9.6c193.9,9.6,211.2,13.4,247.7,57.6c34.6,42.2,36.5,65.3,25,201.6c-38.4,437.8-169,1013.8-297.6,1305.6c-19.2,42.2-57.6,132.5-86.4,201.6c-203.5,493.4-566.4,1031-988.8,1466.9c-639.4,660.5-1461.1,1138.6-2321.3,1355.5C5652.4,5018.8,5076.4,5064.8,4546.5,5013z M5660.1,4659.7c1219.2-182.4,2261.7-794.9,2997.1-1760.6l113.3-147.8l-439.7-5.8c-435.8-5.8-441.6-5.8-489.6-51.8c-69.1-65.3-69.1-169,0-234.2c49.9-46.1,49.9-46.1,599-55.7l551-9.6l97.9-192c55.7-105.6,105.6-211.2,111.4-234.2l13.4-44.2h-741.1h-743l-55.7-55.7c-59.5-59.5-69.1-113.3-32.6-180.5c46.1-90.2,38.4-88.3,892.8-90.2h810.2l21.1-71c9.6-40.3,30.7-113.3,46.1-163.2l28.8-92.2h-512.6c-554.9,0-587.5-5.8-633.6-103.7c-30.7-63.4-17.3-134.4,36.5-180.5c32.6-28.8,105.6-34.6,606.7-42.2l570.2-9.6l11.5-48c7.7-26.9,19.2-99.8,26.9-159.4l13.4-109.4h-4560H437.7l11.5,82.6c7.7,44.2,19.2,115.2,25,157.4l13.4,76.8l652.8,5.8c649,3.8,654.7,3.8,693.1,48c46.1,49.9,57.6,97.9,38.4,170.9c-26.9,105.6-69.1,111.4-714.2,111.4c-668.2,0-610.6-21.1-541.4,192l42.2,124.8l896.6,9.6c896.6,9.6,896.6,9.6,940.8,51.8c63.4,63.4,57.6,170.9-11.5,228.5l-51.8,46.1H1607c-453.1,0-823.7,5.8-823.7,15.4c0,7.7,49.9,113.3,111.4,234.2l109.4,220.8l476.2,9.6l478.1,9.6l46.1,53.8c59.5,69.1,59.5,149.8,0,218.9l-46.1,53.8l-357.1,5.8c-195.8,3.8-357.1,11.5-357.1,15.4c0,5.8,53.8,80.6,119,167c151.7,199.7,535.7,595.2,735.4,754.6c714.2,574.1,1555.2,915.8,2472.9,1006.1C4815.3,4711.6,5418.2,4696.2,5660.1,4659.7z M9077.7,118.9V-34.6H4988.1H898.5v153.6v153.6h4089.6h4089.6V118.9z M9546.2-489.7c-7.7-59.5-19.2-132.5-26.9-159.4l-11.5-48l-658.6-9.6l-658.6-9.6l-36.5-46.1c-51.8-65.3-48-157.4,13.4-215l49.9-46.1l610.6-9.6l610.5-9.6l-49.9-157.4l-48-159.4h-890.9H7559l-46.1-48c-48-46.1-61.4-124.8-36.5-192c32.6-82.6,78.7-86.4,929.3-86.4H9214l-13.4-42.2c-5.8-25-55.7-130.6-111.4-236.2l-97.9-192l-1292.1-9.6l-1294.1-9.6l-46.1-53.8c-59.5-69.1-59.5-149.8,0-218.9l46.1-53.8l1177-9.6l1177-9.6l-124.8-153.6l-122.9-153.6l-737.3-9.6l-735.4-9.6l-36.5-46.1c-49.9-61.4-46.1-142.1,9.6-207.4l46.1-53.8l579.8-9.6l579.8-9.6L8039-3329.3c-99.8-84.5-228.5-190.1-288-234.2l-107.5-80.6h-673.9c-382.1,0-695-7.7-721.9-19.2c-59.5-23-113.3-121-96-178.6c5.8-23,30.7-61.4,51.8-86.4c38.4-40.3,48-42.2,453.1-42.2c257.3,0,405.1-7.7,395.5-17.3c-30.7-30.7-330.3-155.5-558.7-232.3c-969.6-328.3-2017.9-328.3-2995.2,1.9c-128.6,44.2-309.1,115.2-403.2,161.3l-170.9,82.5l253.4,1.9c226.6,1.9,259.2,5.8,293.8,40.3c82.6,82.6,65.3,211.2-38.4,263c-34.6,17.3-190.1,25-564.5,25h-514.6L2158-3492.5c-105.6,84.5-232.3,192-280.3,240l-84.5,88.3h794.9c599,0,808.3,5.8,844.8,25c103.7,51.8,121,180.5,38.4,263c-36.5,36.5-69.1,38.4-1008,38.4h-969.6l-124.8,159.4L1244.1-2521l683.5,9.6l683.5,9.6l46.1,53.8c59.5,69.1,59.5,149.7,0,218.9l-46.1,53.8l-804.5,9.6l-802.5,9.6l-109.4,220.8c-61.4,121-111.4,226.6-111.4,236.2c0,7.7,334.1,13.4,741.1,13.4h741.1l55.7,55.7c65.3,67.2,73,147.8,19.2,215L2304-1369l-823.7,9.6l-821.8,9.6L616.3-1225c-23,69.1-42.2,140.2-42.2,159.4c-1.9,30.7,61.4,32.6,1079,32.6c831.4,0,1090.6,5.8,1127,25c99.8,49.9,119,188.2,36.5,259.2c-34.6,30.7-136.3,32.6-1184.6,42.2l-1144.3,9.6l-13.4,76.8c-5.8,42.2-17.3,113.3-25,159.4l-11.5,80.6h4561.9h4560L9546.2-489.7z"/><path d="M4748.1,4360.2c-251.5-36.5-537.6-153.6-758.4-309.1c-192-134.4-266.9-197.8-311-257.3c-25-32.6-86.4-115.2-136.3-182.4c-178.6-234.2-301.4-558.7-336-885.1c-59.5-568.3,226.6-1211.5,697-1562.9c697-520.3,1511-518.4,2204.1,7.7c366.7,278.4,629.8,752.6,683.5,1228.8c65.3,589.4-217,1232.6-697,1593.6C5675.4,4304.5,5222.3,4429.3,4748.1,4360.2z M4834.5,3788v-247.7l-67.2-11.5c-38.4-7.7-124.8-44.2-195.8-80.6l-128.6-67.2l-178.6,178.6c-209.3,209.3-211.2,197.8,59.5,330.2c169,84.5,349.4,140.2,458.9,144l51.8,1.9V3788z M5399,3997.3c140.2-34.6,391.7-151.7,487.7-226.6l42.2-32.6l-180.5-180.5L5566,3375.2l-96,53.8c-53.8,28.8-144,67.2-197.8,86.4l-101.8,34.6l-5.8,241.9l-5.8,243.8h46.1C5230,4035.7,5316.4,4018.4,5399,3997.3z M4141.4,3029.6c-34.6-61.4-71-147.8-84.5-192l-23-78.7l-249.6-5.8l-251.5-5.8l25,130.6c40.3,207.4,130.6,420.5,234.2,560.6l49.9,63.4l180.5-180.5l178.6-180.5L4141.4,3029.6z M6228.4,3407.9c115.2-178.6,193.9-378.2,228.5-585.6l11.5-73h-247.7h-249.6l-32.6,101.8c-17.3,53.8-51.9,136.3-78.7,180.5c-25,44.2-46.1,90.2-46.1,105.6c0,23,322.6,361,345.6,361C6165,3498.1,6195.8,3457.8,6228.4,3407.9z M5279.9,3177.5c126.7-57.6,286.1-224.6,328.3-347.5c69.1-190.1,51.9-453.1-38.4-595.2c-55.7-88.3-203.5-218.9-293.8-261.1c-69.1-32.6-122.9-40.3-278.4-40.3c-169,0-203.5,7.7-288,49.9c-53.8,26.9-138.2,92.2-188.2,144c-119,122.9-167,249.6-167,449.3c0,195.8,48,328.3,159.4,441.6c119,122.9,132.5,130.6,245.8,174.7C4897.9,3242.8,5149.4,3235.1,5279.9,3177.5z M4056.9,2315.4c13.4-44.2,49.9-130.6,84.5-192l59.5-111.4l-176.6-178.6c-205.4-205.4-195.8-205.4-311,13.4c-88.3,165.1-122.9,263-155.5,428.2l-25,130.6l251.5-5.8l249.6-5.8L4056.9,2315.4z M6456.9,2332.7c-34.6-209.3-113.3-409-228.5-585.6l-59.5-92.2l-184.3,184.3l-186.2,186.2l53.8,82.6c28.8,46.1,67.2,130.6,84.5,190.1l34.6,105.6h247.7h249.6L6456.9,2332.7z M4571.5,1702.9c71-34.6,157.4-71,195.8-78.7l67.2-11.5V1365c0-241.9-1.9-247.7-42.2-247.7c-149.8,0-597.1,178.6-679.7,272.6c-36.5,38.4-34.6,40.3,145.9,209.3c99.8,94.1,182.4,170.9,184.3,170.9C4444.8,1770.1,4502.4,1739.4,4571.5,1702.9z M5752.2,1591.6l178.6-180.5l-74.9-48c-190.1-126.7-506.9-245.8-650.9-245.8H5159l5.8,241.9l5.8,241.9l117.1,42.2c65.3,23,145.9,61.4,182.4,82.6c36.5,23,74.9,42.2,84.5,42.2C5566,1770.1,5654.3,1689.5,5752.2,1591.6z"/><path d="M4930.5,2714.8c-163.2-80.6-101.8-301.4,82.6-295.7c76.8,1.9,147.8,78.7,147.8,157.4c0,61.4-65.3,144-124.8,161.3C5015,2743.6,4967,2734,4930.5,2714.8z"/></g></g>
</svg>